STARTFONT 2.1
COMMENT $XFree86$
COMMENT  
COMMENT  Copyright 1988 Bitstream, Inc., Cambridge, Massachusetts, USA
COMMENT  Bitstream and Charter are registered trademarks of Bitstream, Inc.
COMMENT  
COMMENT  The names "Bitstream" and "Charter" are registered trademarks of
COMMENT  Bitstream, Inc.  Permission to use these trademarks is hereby
COMMENT  granted only in association with the images described in this file.
COMMENT  
COMMENT  Permission to use, copy, modify, and distribute this software and
COMMENT  its documentation for any purpose and without fee is hereby
COMMENT  granted, provided that the above copyright notice appear in all
COMMENT  copies and that both that copyright notice and this permission
COMMENT  notice appear in supporting documentation, and that the name of
COMMENT  Bitstream not be used in advertising or publicity pertaining to
COMMENT  distribution of the software without specific, written prior
COMMENT  permission.  Bitstream makes no representations about the
COMMENT  suitability of this software for any purpose.  It is provided "as
COMMENT  is" without express or implied warranty.
COMMENT  
COMMENT  BITSTREAM DISCLAIMS ALL WARRANTIES WITH REGARD TO THIS SOFTWARE,
COMMENT  INCLUDING ALL IMPLIED WARRANTIES OF MERCHANTABILITY AND FITNESS, IN
COMMENT  NO EVENT SHALL BITSTREAM BE LIABLE FOR ANY SPECIAL, INDIRECT OR
COMMENT  CONSEQUENTIAL DAMAGES OR ANY DAMAGES WHATSOEVER RESULTING FROM LOSS
COMMENT  OF USE, DATA OR PROFITS, WHETHER IN AN ACTION OF CONTRACT,
COMMENT  NEGLIGENCE OR OTHER TORTIOUS ACTION, ARISING OUT OF OR IN
COMMENT  CONNECTION WITH THE USE OR PERFORMANCE OF THIS SOFTWARE.
COMMENT  
COMMENT  
COMMENT Fontware CVTBDF v1.0
FONT -Bitstream-Charter-Medium-R-Normal--14-100-100-100-P-78-ISO8859-1
SIZE 10 100 100
FONTBOUNDINGBOX 14 17 -1 -3
STARTPROPERTIES 22
COMMENT Begin LogicalFontDescription
FONTNAME_REGISTRY ""
FAMILY_NAME "Charter"
FOUNDRY "Bitstream"
WEIGHT_NAME "Medium"
SETWIDTH_NAME "Normal"
SLANT "R"
ADD_STYLE_NAME ""

STARTCHAR space
ENCODING 32
SWIDTH 278 0
DWIDTH 4 0
BBX 1 1 0 0
BITMAP
00
ENDCHAR
STARTCHAR exclam
ENCODING 33
SWIDTH 338 0
DWIDTH 5 0
BBX 2 9 2 0
BITMAP
c0
c0
c0
c0
c0
40
00
c0
c0
ENDCHAR
STARTCHAR quotedbl
ENCODING 34
SWIDTH 331 0
DWIDTH 5 0
BBX 3 4 1 6
BITMAP
a0
a0
a0
a0
ENDCHAR
STARTCHAR numbersign
ENCODING 35
SWIDTH 745 0
DWIDTH 10 0
BBX 8 10 1 0
BITMAP
0a00
1200
1200
7f00
2400
2400
fe00
2800
4800
5000
ENDCHAR
STARTCHAR dollar
ENCODING 36
SWIDTH 556 0
DWIDTH 8 0
BBX 7 12 1 -1
BITMAP
10
10
3e
d2
92
d0
7c
16
92
96
f8
10
ENDCHAR
STARTCHAR percent
ENCODING 37
SWIDTH 852 0
DWIDTH 12 0
BBX 11 11 1 0
BITMAP
6080
9100
9100
9200
92c0
9520
6920
0920
1120
1120
20c0
ENDCHAR
STARTCHAR ampersand
ENCODING 38
SWIDTH 704 0
DWIDTH 10 0
BBX 9 9 1 0
BITMAP
3800
4400
4400
6800
7380
8900
8600
c600
7980
ENDCHAR
STARTCHAR quoteright
ENCODING 39
SWIDTH 201 0
DWIDTH 3 0
BBX 2 4 1 6
BITMAP
c0
c0
40
80
ENDCHAR
STARTCHAR parenleft
ENCODING 40
SWIDTH 417 0
DWIDTH 6 0
BBX 4 12 2 -2
BITMAP
30
40
40
80
80
80
80
80
80
40
40
30
ENDCHAR
STARTCHAR parenright
ENCODING 41
SWIDTH 417 0
DWIDTH 6 0
BBX 4 12 0 -2
BITMAP
c0
20
20
10
10
10
10
10
10
20
20
c0
ENDCHAR
STARTCHAR asterisk
ENCODING 42
SWIDTH 500 0
DWIDTH 7 0
BBX 5 5 1 5
BITMAP
20
20
d8
50
50
ENDCHAR
STARTCHAR plus
ENCODING 43
SWIDTH 833 0
DWIDTH 12 0
BBX 9 9 2 0
BITMAP
0800
0800
0800
0800
ff80
0800
0800
0800
0800
ENDCHAR
STARTCHAR comma
ENCODING 44
SWIDTH 278 0
DWIDTH 4 0
BBX 2 4 1 -2
BITMAP
c0
c0
40
80
ENDCHAR
STARTCHAR hyphen
ENCODING 45
SWIDTH 319 0
DWIDTH 4 0
BBX 3 1 1 3
BITMAP
e0
ENDCHAR
STARTCHAR period
ENCODING 46
SWIDTH 278 0
DWIDTH 4 0
BBX 2 2 1 0
BITMAP
c0
c0
ENDCHAR
STARTCHAR slash
ENCODING 47
SWIDTH 481 0
DWIDTH 7 0
BBX 7 10 0 -1
BITMAP
02
04
04
08
10
10
20
40
40
80
ENDCHAR
STARTCHAR zero
ENCODING 48
SWIDTH 556 0
DWIDTH 8 0
BBX 7 9 1 0
BITMAP
38
44
82
82
82
82
82
44
38
ENDCHAR
STARTCHAR one
ENCODING 49
SWIDTH 556 0
DWIDTH 8 0
BBX 4 9 2 0
BITMAP
60
a0
20
20
20
20
20
20
f0
ENDCHAR
STARTCHAR two
ENCODING 50
SWIDTH 556 0
DWIDTH 8 0
BBX 6 9 1 0
BITMAP
78
8c
84
04
0c
18
20
44
fc
ENDCHAR
STARTCHAR three
ENCODING 51
SWIDTH 556 0
DWIDTH 8 0
BBX 6 9 1 0
BITMAP
78
88
84
08
30
0c
04
8c
70
ENDCHAR
STARTCHAR four
ENCODING 52
SWIDTH 556 0
DWIDTH 8 0
BBX 7 9 1 0
BITMAP
08
18
28
48
88
fe
08
08
08
ENDCHAR
STARTCHAR five
ENCODING 53
SWIDTH 556 0
DWIDTH 8 0
BBX 7 9 0 0
BITMAP
7e
40
40
7c
06
02
02
c4
78
ENDCHAR
STARTCHAR six
ENCODING 54
SWIDTH 556 0
DWIDTH 8 0
BBX 7 10 1 0
BITMAP
0c
30
40
c0
bc
c6
82
82
44
38
ENDCHAR
STARTCHAR seven
ENCODING 55
SWIDTH 556 0
DWIDTH 8 0
BBX 7 9 1 0
BITMAP
fe
84
04
08
18
10
20
20
40
ENDCHAR
STARTCHAR eight
ENCODING 56
SWIDTH 556 0
DWIDTH 8 0
BBX 7 9 1 0
BITMAP
3c
44
c2
64
7c
86
82
c6
3c
ENDCHAR
STARTCHAR nine
ENCODING 57
SWIDTH 556 0
DWIDTH 8 0
BBX 7 9 1 0
BITMAP
38
44
82
82
c6
7e
04
18
60
ENDCHAR
STARTCHAR colon
ENCODING 58
SWIDTH 319 0
DWIDTH 4 0
BBX 2 7 1 0
BITMAP
c0
c0
00
00
00
c0
c0
ENDCHAR
STARTCHAR semicolon
ENCODING 59
SWIDTH 319 0
DWIDTH 4 0
BBX 2 9 1 -2
BITMAP
c0
c0
00
00
00
c0
c0
40
80
ENDCHAR
STARTCHAR less
ENCODING 60
SWIDTH 833 0
DWIDTH 12 0
BBX 8 7 2 1
BITMAP
0100
0e00
7000
8000
7000
0e00
0100
ENDCHAR
STARTCHAR equal
ENCODING 61
SWIDTH 833 0
DWIDTH 12 0
BBX 8 4 2 2
BITMAP
ff00
0000
0000
ff00
ENDCHAR
STARTCHAR greater
ENCODING 62
SWIDTH 833 0
DWIDTH 12 0
BBX 8 7 2 1
BITMAP
c000
3000
0e00
0100
0e00
7000
8000
ENDCHAR
STARTCHAR question
ENCODING 63
SWIDTH 486 0
DWIDTH 7 0
BBX 5 9 1 0
BITMAP
70
88
08
18
20
40
00
60
60
ENDCHAR
STARTCHAR at
ENCODING 64
SWIDTH 942 0
DWIDTH 13 0
BBX 11 12 1 -2
BITMAP
0f00
1080
2040
4720
8920
9120
9120
9240
cd80
4000
3080
0f00
ENDCHAR
STARTCHAR A
ENCODING 65
SWIDTH 639 0
DWIDTH 9 0
BBX 9 9 0 0
BITMAP
0800
1c00
1400
1400
2200
3e00
4300
4100
e380
ENDCHAR
STARTCHAR B
ENCODING 66
SWIDTH 604 0
DWIDTH 8 0
BBX 7 9 1 0
BITMAP
f8
44
46
44
7c
42
42
46
f8
ENDCHAR
STARTCHAR C
ENCODING 67
SWIDTH 632 0
DWIDTH 9 0
BBX 8 9 1 0
BITMAP
1e00
6100
c100
8000
8000
8000
c100
6100
1e00
ENDCHAR
STARTCHAR D
ENCODING 68
SWIDTH 694 0
DWIDTH 10 0
BBX 9 9 1 0
BITMAP
fc00
4300
4180
4080
4080
4080
4180
4300
fc00
ENDCHAR
STARTCHAR E
ENCODING 69
SWIDTH 576 0
DWIDTH 8 0
BBX 7 9 1 0
BITMAP
fe
42
40
44
7c
44
40
42
fe
ENDCHAR
STARTCHAR F
ENCODING 70
SWIDTH 537 0
DWIDTH 7 0
BBX 6 9 1 0
BITMAP
fc
44
40
48
78
48
40
40
e0
ENDCHAR
STARTCHAR G
ENCODING 71
SWIDTH 694 0
DWIDTH 10 0
BBX 9 9 1 0
BITMAP
1f00
6100
8000
8000
8380
8100
c100
6100
1f00
ENDCHAR
STARTCHAR H
ENCODING 72
SWIDTH 738 0
DWIDTH 10 0
BBX 9 9 1 0
BITMAP
e380
4100
4100
4100
7f00
4100
4100
4100
e380
ENDCHAR
STARTCHAR I
ENCODING 73
SWIDTH 324 0
DWIDTH 4 0
BBX 3 9 1 0
BITMAP
e0
40
40
40
40
40
40
40
e0
ENDCHAR
STARTCHAR J
ENCODING 74
SWIDTH 444 0
DWIDTH 6 0
BBX 6 9 0 0
BITMAP
1c
08
08
08
08
08
88
98
f0
ENDCHAR
STARTCHAR K
ENCODING 75
SWIDTH 611 0
DWIDTH 9 0
BBX 8 9 1 0
BITMAP
e700
4400
4800
5000
7000
5800
4c00
4600
e300
ENDCHAR
STARTCHAR L
ENCODING 76
SWIDTH 520 0
DWIDTH 7 0
BBX 6 9 1 0
BITMAP
e0
40
40
40
40
40
44
44
fc
ENDCHAR
STARTCHAR M
ENCODING 77
SWIDTH 866 0
DWIDTH 12 0
BBX 11 9 1 0
BITMAP
e0e0
60c0
5140
5140
5940
4a40
4e40
4440
e4e0
ENDCHAR
STARTCHAR N
ENCODING 78
SWIDTH 713 0
DWIDTH 10 0
BBX 9 9 1 0
BITMAP
e380
6100
5100
5900
4900
4500
4700
4300
e100
ENDCHAR
STARTCHAR O
ENCODING 79
SWIDTH 731 0
DWIDTH 10 0
BBX 9 9 1 0
BITMAP
1c00
6300
c180
8080
8080
8080
c180
6300
1c00
ENDCHAR
STARTCHAR P
ENCODING 80
SWIDTH 558 0
DWIDTH 8 0
BBX 7 9 1 0
BITMAP
f8
46
42
42
46
78
40
40
e0
ENDCHAR
STARTCHAR Q
ENCODING 81
SWIDTH 731 0
DWIDTH 10 0
BBX 9 11 1 -2
BITMAP
1e00
6300
c180
8080
8080
8080
c180
6300
3e00
0800
0e80
ENDCHAR
STARTCHAR R
ENCODING 82
SWIDTH 646 0
DWIDTH 9 0
BBX 8 9 1 0
BITMAP
f800
4400
4400
4c00
7000
4800
4400
4400
e300
ENDCHAR
STARTCHAR S
ENCODING 83
SWIDTH 556 0
DWIDTH 8 0
BBX 7 9 1 0
BITMAP
7e
c2
82
c0
7c
06
82
86
f8
ENDCHAR
STARTCHAR T
ENCODING 84
SWIDTH 597 0
DWIDTH 8 0
BBX 7 9 1 0
BITMAP
fe
92
10
10
10
10
10
10
38
ENDCHAR
STARTCHAR U
ENCODING 85
SWIDTH 694 0
DWIDTH 10 0
BBX 9 9 1 0
BITMAP
e380
4100
4100
4100
4100
4100
4100
6300
3c00
ENDCHAR
STARTCHAR V
ENCODING 86
SWIDTH 618 0
DWIDTH 8 0
BBX 9 9 0 0
BITMAP
e380
4100
6100
2200
3200
1200
1400
1c00
0800
ENDCHAR
STARTCHAR W
ENCODING 87
SWIDTH 928 0
DWIDTH 13 0
BBX 13 9 0 0
BITMAP
e238
4310
4510
6510
25a0
28a0
38a0
18c0
1040
ENDCHAR
STARTCHAR X
ENCODING 88
SWIDTH 600 0
DWIDTH 9 0
BBX 9 9 0 0
BITMAP
f380
2100
3200
1c00
0800
1400
2600
4300
e780
ENDCHAR
STARTCHAR Y
ENCODING 89
SWIDTH 586 0
DWIDTH 8 0
BBX 9 9 0 0
BITMAP
f380
6100
2200
1400
1800
0800
0800
0800
1c00
ENDCHAR
STARTCHAR Z
ENCODING 90
SWIDTH 586 0
DWIDTH 8 0
BBX 7 9 0 0
BITMAP
fe
84
0c
08
10
20
62
42
fe
ENDCHAR
STARTCHAR bracketleft
ENCODING 91
SWIDTH 421 0
DWIDTH 6 0
BBX 3 12 2 -2
BITMAP
e0
80
80
80
80
80
80
80
80
80
80
e0
ENDCHAR
STARTCHAR backslash
ENCODING 92
SWIDTH 481 0
DWIDTH 7 0
BBX 7 10 0 -1
BITMAP
80
40
20
20
10
10
08
04
04
02
ENDCHAR
STARTCHAR bracketright
ENCODING 93
SWIDTH 421 0
DWIDTH 6 0
BBX 3 12 1 -2
BITMAP
e0
20
20
20
20
20
20
20
20
20
20
e0
ENDCHAR
STARTCHAR asciicircum
ENCODING 94
SWIDTH 1000 0
DWIDTH 14 0
BBX 8 4 3 6
BITMAP
1800
2400
4200
8100
ENDCHAR
STARTCHAR underscore
ENCODING 95
SWIDTH 500 0
DWIDTH 7 0
BBX 7 1 0 -3
BITMAP
fe
ENDCHAR
STARTCHAR quoteleft
ENCODING 96
SWIDTH 201 0
DWIDTH 3 0
BBX 2 4 1 6
BITMAP
40
80
c0
c0
ENDCHAR
STARTCHAR a
ENCODING 97
SWIDTH 507 0
DWIDTH 7 0
BBX 6 7 1 0
BITMAP
70
c8
18
68
88
98
6c
ENDCHAR
STARTCHAR b
ENCODING 98
SWIDTH 539 0
DWIDTH 7 0
BBX 7 11 0 0
BITMAP
c0
40
40
40
7c
46
42
42
42
44
78
ENDCHAR
STARTCHAR c
ENCODING 99
SWIDTH 446 0
DWIDTH 6 0
BBX 5 7 1 0
BITMAP
30
48
80
80
80
c8
78
ENDCHAR
STARTCHAR d
ENCODING 100
SWIDTH 565 0
DWIDTH 8 0
BBX 7 11 1 0
BITMAP
0c
04
04
04
3c
44
84
84
84
cc
76
ENDCHAR
STARTCHAR e
ENCODING 101
SWIDTH 491 0
DWIDTH 7 0
BBX 6 7 1 0
BITMAP
38
44
84
fc
80
c4
78
ENDCHAR
STARTCHAR f
ENCODING 102
SWIDTH 321 0
DWIDTH 4 0
BBX 4 11 1 0
BITMAP
30
50
40
40
e0
40
40
40
40
40
e0
ENDCHAR
STARTCHAR g
ENCODING 103
SWIDTH 523 0
DWIDTH 7 0
BBX 6 10 1 -3
BITMAP
70
8c
88
70
40
78
8c
84
88
70
ENDCHAR
STARTCHAR h
ENCODING 104
SWIDTH 564 0
DWIDTH 8 0
BBX 7 11 1 0
BITMAP
c0
40
40
40
78
44
44
44
44
44
ee
ENDCHAR
STARTCHAR i
ENCODING 105
SWIDTH 280 0
DWIDTH 4 0
BBX 3 11 1 0
BITMAP
40
40
00
00
c0
40
40
40
40
40
e0
ENDCHAR
STARTCHAR j
ENCODING 106
SWIDTH 266 0
DWIDTH 4 0
BBX 4 14 -1 -3
BITMAP
10
10
00
00
30
10
10
10
10
10
10
10
90
e0
ENDCHAR
STARTCHAR k
ENCODING 107
SWIDTH 518 0
DWIDTH 7 0
BBX 6 11 1 0
BITMAP
c0
40
40
40
4c
48
50
70
58
48
e4
ENDCHAR
STARTCHAR l
ENCODING 108
SWIDTH 282 0
DWIDTH 4 0
BBX 3 11 1 0
BITMAP
c0
40
40
40
40
40
40
40
40
40
e0
ENDCHAR
STARTCHAR m
ENCODING 109
SWIDTH 843 0
DWIDTH 12 0
BBX 11 7 1 0
BITMAP
ffc0
4440
4440
4440
4440
4440
eee0
ENDCHAR
STARTCHAR n
ENCODING 110
SWIDTH 569 0
DWIDTH 8 0
BBX 7 7 1 0
BITMAP
fc
44
44
44
44
44
ee
ENDCHAR
STARTCHAR o
ENCODING 111
SWIDTH 539 0
DWIDTH 7 0
BBX 6 7 1 0
BITMAP
30
48
84
84
84
48
30
ENDCHAR
STARTCHAR p
ENCODING 112
SWIDTH 551 0
DWIDTH 8 0
BBX 7 10 1 -3
BITMAP
fc
46
42
42
42
44
78
40
40
e0
ENDCHAR
STARTCHAR q
ENCODING 113
SWIDTH 531 0
DWIDTH 8 0
BBX 7 10 1 -3
BITMAP
3c
44
84
84
84
c4
7c
04
04
0e
ENDCHAR
STARTCHAR r
ENCODING 114
SWIDTH 382 0
DWIDTH 5 0
BBX 4 7 1 0
BITMAP
f0
40
40
40
40
40
e0
ENDCHAR
STARTCHAR s
ENCODING 115
SWIDTH 400 0
DWIDTH 6 0
BBX 5 7 1 0
BITMAP
78
88
c0
70
08
88
f0
ENDCHAR
STARTCHAR t
ENCODING 116
SWIDTH 335 0
DWIDTH 5 0
BBX 4 8 1 0
BITMAP
40
f0
40
40
40
40
40
70
ENDCHAR
STARTCHAR u
ENCODING 117
SWIDTH 569 0
DWIDTH 8 0
BBX 7 7 1 0
BITMAP
cc
44
44
44
44
44
3e
ENDCHAR
STARTCHAR v
ENCODING 118
SWIDTH 494 0
DWIDTH 7 0
BBX 7 7 0 0
BITMAP
e6
44
64
24
28
38
10
ENDCHAR
STARTCHAR w
ENCODING 119
SWIDTH 771 0
DWIDTH 11 0
BBX 11 7 0 0
BITMAP
e4e0
4640
6640
2a80
2a80
3980
1100
ENDCHAR
STARTCHAR x
ENCODING 120
SWIDTH 504 0
DWIDTH 7 0
BBX 7 7 0 0
BITMAP
ee
64
28
10
28
4c
ee
ENDCHAR
STARTCHAR y
ENCODING 121
SWIDTH 495 0
DWIDTH 7 0
BBX 7 10 0 -3
BITMAP
e6
44
64
28
28
10
10
10
a0
c0
ENDCHAR
STARTCHAR z
ENCODING 122
SWIDTH 468 0
DWIDTH 6 0
BBX 5 7 1 0
BITMAP
f8
90
30
20
40
c8
f8
ENDCHAR
STARTCHAR braceleft
ENCODING 123
SWIDTH 486 0
DWIDTH 7 0
BBX 5 12 1 -2
BITMAP
18
20
20
20
20
c0
20
20
20
20
20
18
ENDCHAR
STARTCHAR bar
ENCODING 124
SWIDTH 500 0
DWIDTH 7 0
BBX 1 14 3 -3
BITMAP
80
80
80
80
80
80
80
80
80
80
80
80
80
80
ENDCHAR
STARTCHAR braceright
ENCODING 125
SWIDTH 486 0
DWIDTH 7 0
BBX 5 12 1 -2
BITMAP
c0
20
20
20
20
18
20
20
20
20
20
c0
ENDCHAR
STARTCHAR c0126
ENCODING 126
SWIDTH 1000 0
DWIDTH 14 0
BBX 9 2 3 7
BITMAP
3880
cf00
ENDCHAR
STARTCHAR space
ENCODING 160
SWIDTH 278 0
DWIDTH 4 0
BBX 1 1 0 0
BITMAP
00
ENDCHAR
STARTCHAR exclamdown
ENCODING 161
SWIDTH 338 0
DWIDTH 5 0
BBX 2 9 2 0
BITMAP
c0
c0
00
40
c0
c0
c0
c0
c0
ENDCHAR
STARTCHAR cent
ENCODING 162
SWIDTH 556 0
DWIDTH 8 0
BBX 6 10 1 -1
BITMAP
10
10
3c
54
94
90
90
d4
3c
10
ENDCHAR
STARTCHAR sterling
ENCODING 163
SWIDTH 556 0
DWIDTH 8 0
BBX 7 9 1 0
BITMAP
1c
32
20
20
7c
20
20
40
fe
ENDCHAR
STARTCHAR currency
ENCODING 164
SWIDTH 606 0
DWIDTH 8 0
BBX 8 8 0 2
BITMAP
8100
5a00
2400
4200
4200
2400
5a00
8100
ENDCHAR
STARTCHAR yen
ENCODING 165
SWIDTH 556 0
DWIDTH 8 0
BBX 8 9 0 0
BITMAP
e700
4200
2400
ef00
1000
ff00
1000
1000
3800
ENDCHAR
STARTCHAR brokenbar
ENCODING 166
SWIDTH 500 0
DWIDTH 7 0
BBX 1 12 3 -2
BITMAP
80
80
80
80
80
00
00
80
80
80
80
80
ENDCHAR
STARTCHAR section
ENCODING 167
SWIDTH 500 0
DWIDTH 7 0
BBX 6 12 1 -2
BITMAP
78
c4
c0
70
58
84
84
68
18
84
88
70
ENDCHAR
STARTCHAR dieresis
ENCODING 168
SWIDTH 500 0
DWIDTH 7 0
BBX 3 1 2 9
BITMAP
a0
ENDCHAR
STARTCHAR copyright
ENCODING 169
SWIDTH 900 0
DWIDTH 12 0
BBX 10 11 1 0
BITMAP
1e00
2100
4e80
5280
a040
a040
a040
5280
4e80
2100
1e00
ENDCHAR
STARTCHAR ordfeminine
ENCODING 170
SWIDTH 380 0
DWIDTH 5 0
BBX 4 5 1 4
BITMAP
60
30
d0
90
70
ENDCHAR
STARTCHAR guillemotleft
ENCODING 171
SWIDTH 442 0
DWIDTH 6 0
BBX 5 5 0 1
BITMAP
48
50
90
d0
48
ENDCHAR
STARTCHAR logicalnot
ENCODING 172
SWIDTH 833 0
DWIDTH 12 0
BBX 8 3 2 3
BITMAP
ff00
0100
0100
ENDCHAR
STARTCHAR hyphen
ENCODING 173
SWIDTH 319 0
DWIDTH 4 0
BBX 3 1 1 3
BITMAP
e0
ENDCHAR
STARTCHAR registered
ENCODING 174
SWIDTH 900 0
DWIDTH 12 0
BBX 10 11 1 0
BITMAP
1e00
2100
7c80
9280
9240
9c40
9240
9240
7b80
2100
1e00
ENDCHAR
STARTCHAR macron
ENCODING 175
SWIDTH 500 0
DWIDTH 7 0
BBX 4 1 2 9
BITMAP
f0
ENDCHAR
STARTCHAR degree
ENCODING 176
SWIDTH 329 0
DWIDTH 5 0
BBX 4 4 1 6
BITMAP
60
90
90
60
ENDCHAR
STARTCHAR plusminus
ENCODING 177
SWIDTH 833 0
DWIDTH 12 0
BBX 9 8 2 0
BITMAP
0800
0800
ff80
0800
0800
0000
0000
ff80
ENDCHAR
STARTCHAR twosuperior
ENCODING 178
SWIDTH 367 0
DWIDTH 5 0
BBX 4 6 1 4
BITMAP
60
90
10
20
50
f0
ENDCHAR
STARTCHAR threesuperior
ENCODING 179
SWIDTH 367 0
DWIDTH 5 0
BBX 4 6 1 4
BITMAP
60
90
30
60
10
e0
ENDCHAR
STARTCHAR acute
ENCODING 180
SWIDTH 500 0
DWIDTH 7 0
BBX 3 3 3 8
BITMAP
60
40
80
ENDCHAR
STARTCHAR mu
ENCODING 181
SWIDTH 548 0
DWIDTH 7 0
BBX 8 9 -1 -3
BITMAP
2600
2400
4400
4400
4d00
7600
8000
8000
8000
ENDCHAR
STARTCHAR paragraph
ENCODING 182
SWIDTH 484 0
DWIDTH 7 0
BBX 7 10 0 -1
BITMAP
3e
74
f4
f4
74
04
04
04
04
04
ENDCHAR
STARTCHAR periodcentered
ENCODING 183
SWIDTH 278 0
DWIDTH 4 0
BBX 2 2 1 4
BITMAP
c0
c0
ENDCHAR
STARTCHAR cedilla
ENCODING 184
SWIDTH 500 0
DWIDTH 7 0
BBX 3 3 2 -3
BITMAP
60
20
c0
ENDCHAR
STARTCHAR onesuperior
ENCODING 185
SWIDTH 367 0
DWIDTH 5 0
BBX 2 6 2 4
BITMAP
40
c0
40
40
40
c0
ENDCHAR
STARTCHAR ordmasculine
ENCODING 186
SWIDTH 405 0
DWIDTH 6 0
BBX 5 5 1 4
BITMAP
70
88
88
88
70
ENDCHAR
STARTCHAR guillemotright
ENCODING 187
SWIDTH 442 0
DWIDTH 6 0
BBX 5 5 1 1
BITMAP
90
58
48
58
90
ENDCHAR
STARTCHAR onequarter
ENCODING 188
SWIDTH 867 0
DWIDTH 13 0
BBX 11 10 2 0
BITMAP
4000
c100
4200
4400
44c0
c940
1240
13e0
2040
4040
ENDCHAR
STARTCHAR onehalf
ENCODING 189
SWIDTH 867 0
DWIDTH 13 0
BBX 11 10 2 0
BITMAP
4000
c100
4200
4400
44c0
c920
1020
1040
20a0
41e0
ENDCHAR
STARTCHAR threequarters
ENCODING 190
SWIDTH 867 0
DWIDTH 12 0
BBX 11 10 1 0
BITMAP
6000
9080
3100
6200
12c0
e540
0a40
0be0
1040
2040
ENDCHAR
STARTCHAR questiondown
ENCODING 191
SWIDTH 486 0
DWIDTH 7 0
BBX 5 9 1 0
BITMAP
30
30
00
10
20
c0
80
c8
70
ENDCHAR
STARTCHAR Agrave
ENCODING 192
SWIDTH 639 0
DWIDTH 9 0
BBX 9 13 0 0
BITMAP
3000
1000
0800
0000
0800
1c00
1400
1400
2200
3e00
4300
4100
e380
ENDCHAR
STARTCHAR Aacute
ENCODING 193
SWIDTH 639 0
DWIDTH 9 0
BBX 9 13 0 0
BITMAP
0600
0400
0800
0000
0800
1c00
1400
1400
2200
3e00
4300
4100
e380
ENDCHAR
STARTCHAR Acircumflex
ENCODING 194
SWIDTH 639 0
DWIDTH 9 0
BBX 9 13 0 0
BITMAP
0c00
0c00
1200
0000
0800
1c00
1400
1400
2200
3e00
4300
4100
e380
ENDCHAR
STARTCHAR Atilde
ENCODING 195
SWIDTH 639 0
DWIDTH 9 0
BBX 9 12 0 0
BITMAP
0a00
1600
0000
0800
1c00
1400
1400
2200
3e00
4300
4100
e380
ENDCHAR
STARTCHAR Adieresis
ENCODING 196
SWIDTH 639 0
DWIDTH 9 0
BBX 9 12 0 0
BITMAP
1400
0000
0000
0800
1c00
1400
1400
2200
3e00
4300
4100
e380
ENDCHAR
STARTCHAR Aring
ENCODING 197
SWIDTH 639 0
DWIDTH 9 0
BBX 9 14 0 0
BITMAP
1800
1400
1400
1800
0000
0800
1c00
1400
1400
2200
3e00
4300
4100
e380
ENDCHAR
STARTCHAR AE
ENCODING 198
SWIDTH 866 0
DWIDTH 12 0
BBX 13 9 -1 0
BITMAP
07f8
0308
0500
0910
11f0
1f10
2100
4108
e3f8
ENDCHAR
STARTCHAR Ccedilla
ENCODING 199
SWIDTH 632 0
DWIDTH 9 0
BBX 8 12 1 -3
BITMAP
1e00
6100
c100
8000
8000
8000
c100
6100
1e00
0c00
0400
1800
ENDCHAR
STARTCHAR Egrave
ENCODING 200
SWIDTH 576 0
DWIDTH 8 0
BBX 7 13 1 0
BITMAP
60
20
10
00
fe
42
40
44
7c
44
40
42
fe
ENDCHAR
STARTCHAR Eacute
ENCODING 201
SWIDTH 576 0
DWIDTH 8 0
BBX 7 13 1 0
BITMAP
0c
08
10
00
fe
42
40
44
7c
44
40
42
fe
ENDCHAR
STARTCHAR Ecircumflex
ENCODING 202
SWIDTH 576 0
DWIDTH 8 0
BBX 7 13 1 0
BITMAP
18
18
24
00
fe
42
40
44
7c
44
40
42
fe
ENDCHAR
STARTCHAR Edieresis
ENCODING 203
SWIDTH 576 0
DWIDTH 8 0
BBX 7 12 1 0
BITMAP
28
00
00
fe
42
40
44
7c
44
40
42
fe
ENDCHAR
STARTCHAR Igrave
ENCODING 204
SWIDTH 324 0
DWIDTH 4 0
BBX 4 13 0 0
BITMAP
c0
40
20
00
70
20
20
20
20
20
20
20
70
ENDCHAR
STARTCHAR Iacute
ENCODING 205
SWIDTH 324 0
DWIDTH 4 0
BBX 4 13 1 0
BITMAP
30
20
40
00
e0
40
40
40
40
40
40
40
e0
ENDCHAR
STARTCHAR Icircumflex
ENCODING 206
SWIDTH 324 0
DWIDTH 4 0
BBX 4 13 1 0
BITMAP
60
60
90
00
e0
40
40
40
40
40
40
40
e0
ENDCHAR
STARTCHAR Idieresis
ENCODING 207
SWIDTH 324 0
DWIDTH 4 0
BBX 3 12 1 0
BITMAP
a0
00
00
e0
40
40
40
40
40
40
40
e0
ENDCHAR
STARTCHAR Eth
ENCODING 208
SWIDTH 694 0
DWIDTH 10 0
BBX 10 9 0 0
BITMAP
7e00
2180
20c0
2040
fc40
2040
20c0
2180
7e00
ENDCHAR
STARTCHAR Ntilde
ENCODING 209
SWIDTH 713 0
DWIDTH 10 0
BBX 9 12 1 0
BITMAP
0a00
1600
0000
e380
6100
5100
5900
4900
4500
4700
4300
e100
ENDCHAR
STARTCHAR Ograve
ENCODING 210
SWIDTH 731 0
DWIDTH 10 0
BBX 9 13 1 0
BITMAP
3000
1000
0800
0000
1c00
6300
c180
8080
8080
8080
c180
6300
1c00
ENDCHAR
STARTCHAR Oacute
ENCODING 211
SWIDTH 731 0
DWIDTH 10 0
BBX 9 13 1 0
BITMAP
0600
0400
0800
0000
1c00
6300
c180
8080
8080
8080
c180
6300
1c00
ENDCHAR
STARTCHAR Ocircumflex
ENCODING 212
SWIDTH 731 0
DWIDTH 10 0
BBX 9 13 1 0
BITMAP
0c00
0c00
1200
0000
1c00
6300
c180
8080
8080
8080
c180
6300
1c00
ENDCHAR
STARTCHAR Otilde
ENCODING 213
SWIDTH 731 0
DWIDTH 10 0
BBX 9 12 1 0
BITMAP
0a00
1600
0000
1c00
6300
c180
8080
8080
8080
c180
6300
1c00
ENDCHAR
STARTCHAR Odieresis
ENCODING 214
SWIDTH 731 0
DWIDTH 10 0
BBX 9 12 1 0
BITMAP
1400
0000
0000
1c00
6300
c180
8080
8080
8080
c180
6300
1c00
ENDCHAR
STARTCHAR multiply
ENCODING 215
SWIDTH 833 0
DWIDTH 12 0
BBX 8 8 2 0
BITMAP
8100
4200
2400
1800
1800
2400
4200
8100
ENDCHAR
STARTCHAR Oslash
ENCODING 216
SWIDTH 731 0
DWIDTH 10 0
BBX 9 12 1 -1
BITMAP
0100
0100
1f00
6300
c380
8480
8880
9080
e180
6300
7c00
8000
ENDCHAR
STARTCHAR Ugrave
ENCODING 217
SWIDTH 694 0
DWIDTH 10 0
BBX 9 13 1 0
BITMAP
3000
1000
0800
0000
e380
4100
4100
4100
4100
4100
4100
6300
3c00
ENDCHAR
STARTCHAR Uacute
ENCODING 218
SWIDTH 694 0
DWIDTH 10 0
BBX 9 13 1 0
BITMAP
0600
0400
0800
0000
e380
4100
4100
4100
4100
4100
4100
6300
3c00
ENDCHAR
STARTCHAR Ucircumflex
ENCODING 219
SWIDTH 694 0
DWIDTH 10 0
BBX 9 13 1 0
BITMAP
0c00
0c00
1200
0000
e380
4100
4100
4100
4100
4100
4100
6300
3c00
ENDCHAR
STARTCHAR Udieresis
ENCODING 220
SWIDTH 694 0
DWIDTH 10 0
BBX 9 12 1 0
BITMAP
1400
0000
0000
e380
4100
4100
4100
4100
4100
4100
6300
3c00
ENDCHAR
STARTCHAR Yacute
ENCODING 221
SWIDTH 586 0
DWIDTH 8 0
BBX 9 13 0 0
BITMAP
0600
0400
0800
0000
f380
6100
2200
1400
1800
0800
0800
0800
1c00
ENDCHAR
STARTCHAR Thorn
ENCODING 222
SWIDTH 558 0
DWIDTH 8 0
BBX 7 9 1 0
BITMAP
e0
7c
46
42
42
46
78
40
e0
ENDCHAR
STARTCHAR germandbls
ENCODING 223
SWIDTH 609 0
DWIDTH 8 0
BBX 8 11 0 0
BITMAP
1c00
2600
4200
4200
4c00
4800
4c00
4300
4100
4900
ee00
ENDCHAR
STARTCHAR agrave
ENCODING 224
SWIDTH 507 0
DWIDTH 7 0
BBX 6 11 1 0
BITMAP
c0
40
20
00
70
c8
18
68
88
98
6c
ENDCHAR
STARTCHAR aacute
ENCODING 225
SWIDTH 507 0
DWIDTH 7 0
BBX 6 11 1 0
BITMAP
18
10
20
00
70
c8
18
68
88
98
6c
ENDCHAR
STARTCHAR acircumflex
ENCODING 226
SWIDTH 507 0
DWIDTH 7 0
BBX 6 11 1 0
BITMAP
30
30
48
00
70
c8
18
68
88
98
6c
ENDCHAR
STARTCHAR atilde
ENCODING 227
SWIDTH 507 0
DWIDTH 7 0
BBX 6 10 1 0
BITMAP
28
58
00
70
c8
18
68
88
98
6c
ENDCHAR
STARTCHAR adieresis
ENCODING 228
SWIDTH 507 0
DWIDTH 7 0
BBX 6 10 1 0
BITMAP
50
00
00
70
c8
18
68
88
98
6c
ENDCHAR
STARTCHAR aring
ENCODING 229
SWIDTH 507 0
DWIDTH 7 0
BBX 6 11 1 0
BITMAP
30
48
30
00
70
c8
18
68
88
98
6c
ENDCHAR
STARTCHAR ae
ENCODING 230
SWIDTH 725 0
DWIDTH 10 0
BBX 9 7 1 0
BITMAP
7700
c880
0880
3f80
c800
8880
7780
ENDCHAR
STARTCHAR ccedilla
ENCODING 231
SWIDTH 446 0
DWIDTH 6 0
BBX 5 10 1 -3
BITMAP
30
48
80
80
80
c8
78
30
10
60
ENDCHAR
STARTCHAR egrave
ENCODING 232
SWIDTH 491 0
DWIDTH 7 0
BBX 6 11 1 0
BITMAP
c0
40
20
00
38
44
84
fc
80
c4
78
ENDCHAR
STARTCHAR eacute
ENCODING 233
SWIDTH 491 0
DWIDTH 7 0
BBX 6 11 1 0
BITMAP
18
10
20
00
38
44
84
fc
80
c4
78
ENDCHAR
STARTCHAR ecircumflex
ENCODING 234
SWIDTH 491 0
DWIDTH 7 0
BBX 6 11 1 0
BITMAP
30
30
48
00
38
44
84
fc
80
c4
78
ENDCHAR
STARTCHAR edieresis
ENCODING 235
SWIDTH 491 0
DWIDTH 7 0
BBX 6 10 1 0
BITMAP
50
00
00
38
44
84
fc
80
c4
78
ENDCHAR
STARTCHAR igrave
ENCODING 236
SWIDTH 280 0
DWIDTH 4 0
BBX 5 11 -1 0
BITMAP
c0
40
20
00
30
10
10
10
10
10
38
ENDCHAR
STARTCHAR iacute
ENCODING 237
SWIDTH 280 0
DWIDTH 4 0
BBX 3 11 1 0
BITMAP
60
40
80
00
c0
40
40
40
40
40
e0
ENDCHAR
STARTCHAR icircumflex
ENCODING 238
SWIDTH 280 0
DWIDTH 4 0
BBX 4 11 0 0
BITMAP
60
60
90
00
60
20
20
20
20
20
70
ENDCHAR
STARTCHAR idieresis
ENCODING 239
SWIDTH 280 0
DWIDTH 4 0
BBX 4 10 0 0
BITMAP
a0
00
00
60
20
20
20
20
20
70
ENDCHAR
STARTCHAR eth
ENCODING 240
SWIDTH 528 0
DWIDTH 7 0
BBX 6 11 1 0
BITMAP
68
30
70
48
38
44
84
84
84
48
30
ENDCHAR
STARTCHAR ntilde
ENCODING 241
SWIDTH 569 0
DWIDTH 8 0
BBX 7 10 1 0
BITMAP
14
2c
00
fc
44
44
44
44
44
ee
ENDCHAR
STARTCHAR ograve
ENCODING 242
SWIDTH 539 0
DWIDTH 7 0
BBX 6 11 1 0
BITMAP
60
20
10
00
30
48
84
84
84
48
30
ENDCHAR
STARTCHAR oacute
ENCODING 243
SWIDTH 539 0
DWIDTH 7 0
BBX 6 11 1 0
BITMAP
0c
08
10
00
30
48
84
84
84
48
30
ENDCHAR
STARTCHAR ocircumflex
ENCODING 244
SWIDTH 539 0
DWIDTH 7 0
BBX 6 11 1 0
BITMAP
18
18
24
00
30
48
84
84
84
48
30
ENDCHAR
STARTCHAR otilde
ENCODING 245
SWIDTH 539 0
DWIDTH 7 0
BBX 6 10 1 0
BITMAP
14
2c
00
30
48
84
84
84
48
30
ENDCHAR
STARTCHAR odieresis
ENCODING 246
SWIDTH 539 0
DWIDTH 7 0
BBX 6 10 1 0
BITMAP
28
00
00
30
48
84
84
84
48
30
ENDCHAR
STARTCHAR divide
ENCODING 247
SWIDTH 833 0
DWIDTH 12 0
BBX 8 7 2 1
BITMAP
1800
1800
0000
ff00
0000
1800
1800
ENDCHAR
STARTCHAR oslash
ENCODING 248
SWIDTH 539 0
DWIDTH 7 0
BBX 6 9 1 -1
BITMAP
04
38
48
94
a4
a4
48
70
80
ENDCHAR
STARTCHAR ugrave
ENCODING 249
SWIDTH 569 0
DWIDTH 8 0
BBX 7 11 1 0
BITMAP
60
20
10
00
cc
44
44
44
44
44
3e
ENDCHAR
STARTCHAR uacute
ENCODING 250
SWIDTH 569 0
DWIDTH 8 0
BBX 7 11 1 0
BITMAP
0c
08
10
00
cc
44
44
44
44
44
3e
ENDCHAR
STARTCHAR ucircumflex
ENCODING 251
SWIDTH 569 0
DWIDTH 8 0
BBX 7 11 1 0
BITMAP
18
18
24
00
cc
44
44
44
44
44
3e
ENDCHAR
STARTCHAR udieresis
ENCODING 252
SWIDTH 569 0
DWIDTH 8 0
BBX 7 10 1 0
BITMAP
28
00
00
cc
44
44
44
44
44
3e
ENDCHAR
STARTCHAR yacute
ENCODING 253
SWIDTH 495 0
DWIDTH 7 0
BBX 7 14 0 -3
BITMAP
0c
08
10
00
e6
44
64
28
28
10
10
10
a0
c0
ENDCHAR
STARTCHAR thorn
ENCODING 254
SWIDTH 551 0
DWIDTH 8 0
BBX 7 14 1 -3
BITMAP
c0
40
40
40
7c
46
42
42
42
44
78
40
40
e0
ENDCHAR
STARTCHAR ydieresis
ENCODING 255
SWIDTH 495 0
DWIDTH 7 0
BBX 7 13 0 -3
BITMAP
28
00
00
e6
44
64
28
28
10
10
10
a0
c0
ENDCHAR
ENDFONT
